solid OpenSCAD_Model
  facet normal 0 0 -1
    outer loop
      vertex -32.0884 -14.32 0
      vertex -13.2091 -27.5629 0
      vertex -29.2644 -30.3958 0
    endloop
  endfacet
  facet normal 0 0 -1
    outer loop
      vertex -13.2091 -27.5629 0
      vertex -32.0884 -14.32 0
      vertex -19.5878 -3.84375 0
    endloop
  endfacet
  facet normal 0 0 -1
    outer loop
      vertex 32.7252 3.1351 0
      vertex 13.8331 16.3933 0
      vertex 29.9153 19.2097 0
    endloop
  endfacet
  facet normal 0 0 -1
    outer loop
      vertex 7.73038 -17.825 0
      vertex 13.8331 16.3933 0
      vertex 32.7252 3.1351 0
    endloop
  endfacet
  facet normal 0 0 -1
    outer loop
      vertex -7.60954 -12.2382 0
      vertex 13.8331 16.3933 0
      vertex 7.73038 -17.825 0
    endloop
  endfacet
  facet normal -0 0 -1
    outer loop
      vertex 13.8331 16.3933 0
      vertex -7.60954 -12.2382 0
      vertex -9.15143 18.4113 0
    endloop
  endfacet
  facet normal 0 0 -1
    outer loop
      vertex 13.8331 16.3933 0
      vertex -9.15143 18.4113 0
      vertex 3.35684 28.8939 0
    endloop
  endfacet
  facet normal 0 0 -1
    outer loop
      vertex -19.5878 -3.84375 0
      vertex -7.60954 -12.2382 0
      vertex -13.2091 -27.5629 0
    endloop
  endfacet
  facet normal 0 0 -1
    outer loop
      vertex -7.60954 -12.2382 0
      vertex -19.5878 -3.84375 0
      vertex -9.15143 18.4113 0
    endloop
  endfacet
  facet normal 0 0 -1
    outer loop
      vertex -30.0704 8.66449 0
      vertex -9.15143 18.4113 0
      vertex -19.5878 -3.84375 0
    endloop
  endfacet
  facet normal -0 0 -1
    outer loop
      vertex -9.15143 18.4113 0
      vertex -30.0704 8.66449 0
      vertex -24.4773 23.9968 0
    endloop
  endfacet
  facet normal -0 0 1
    outer loop
      vertex -9.15143 18.4113 5
      vertex 13.8331 16.3933 5
      vertex 3.35684 28.8939 5
    endloop
  endfacet
  facet normal 0 0 1
    outer loop
      vertex 13.8331 16.3933 5
      vertex -9.15143 18.4113 5
      vertex 12.925 7.925 5
    endloop
  endfacet
  facet normal 0 0 1
    outer loop
      vertex -9.15143 18.4113 5
      vertex -12.925 7.925 5
      vertex 12.925 7.925 5
    endloop
  endfacet
  facet normal -0 0 1
    outer loop
      vertex -19.5878 -3.84375 5
      vertex -12.925 -5.825 5
      vertex -12.925 7.925 5
    endloop
  endfacet
  facet normal 0 0 1
    outer loop
      vertex -32.0884 -14.32 5
      vertex -12.925 -5.825 5
      vertex -19.5878 -3.84375 5
    endloop
  endfacet
  facet normal 0 0 1
    outer loop
      vertex -24.4773 23.9968 5
      vertex -12.925 7.925 5
      vertex -9.15143 18.4113 5
    endloop
  endfacet
  facet normal 0 0 1
    outer loop
      vertex -12.925 7.925 5
      vertex -24.4773 23.9968 5
      vertex -30.0704 8.66449 5
    endloop
  endfacet
  facet normal 0 0 1
    outer loop
      vertex -12.925 7.925 5
      vertex -30.0704 8.66449 5
      vertex -19.5878 -3.84375 5
    endloop
  endfacet
  facet normal 0 0 1
    outer loop
      vertex 12.925 7.925 5
      vertex 29.9153 19.2097 5
      vertex 13.8331 16.3933 5
    endloop
  endfacet
  facet normal 0 0 1
    outer loop
      vertex 29.9153 19.2097 5
      vertex 12.925 7.925 5
      vertex 32.7252 3.1351 5
    endloop
  endfacet
  facet normal 0 0 1
    outer loop
      vertex 12.925 -5.825 5
      vertex 32.7252 3.1351 5
      vertex 12.925 7.925 5
    endloop
  endfacet
  facet normal -0 0 1
    outer loop
      vertex 12.925 -5.825 5
      vertex 7.73038 -17.825 5
      vertex 32.7252 3.1351 5
    endloop
  endfacet
  facet normal 0 0 1
    outer loop
      vertex 12.925 -5.825 5
      vertex -7.60954 -12.2382 5
      vertex 7.73038 -17.825 5
    endloop
  endfacet
  facet normal -0 0 1
    outer loop
      vertex -12.925 -5.825 5
      vertex -7.60954 -12.2382 5
      vertex 12.925 -5.825 5
    endloop
  endfacet
  facet normal 0 0 1
    outer loop
      vertex -7.60954 -12.2382 5
      vertex -12.925 -5.825 5
      vertex -13.2091 -27.5629 5
    endloop
  endfacet
  facet normal 0 0 1
    outer loop
      vertex -12.925 -5.825 5
      vertex -32.0884 -14.32 5
      vertex -13.2091 -27.5629 5
    endloop
  endfacet
  facet normal 0 0 1
    outer loop
      vertex -13.2091 -27.5629 5
      vertex -32.0884 -14.32 5
      vertex -29.2644 -30.3958 5
    endloop
  endfacet
  facet normal 0.939262 -0.343201 0
    outer loop
      vertex -13.2091 -27.5629 5
      vertex -7.60954 -12.2382 0
      vertex -7.60954 -12.2382 5
    endloop
  endfacet
  facet normal 0.939262 -0.343201 0
    outer loop
      vertex -7.60954 -12.2382 0
      vertex -13.2091 -27.5629 5
      vertex -13.2091 -27.5629 0
    endloop
  endfacet
  facet normal -0.342211 -0.939623 0
    outer loop
      vertex -7.60954 -12.2382 0
      vertex 7.73038 -17.825 5
      vertex -7.60954 -12.2382 5
    endloop
  endfacet
  facet normal -0.342211 -0.939623 -0
    outer loop
      vertex 7.73038 -17.825 5
      vertex -7.60954 -12.2382 0
      vertex 7.73038 -17.825 0
    endloop
  endfacet
  facet normal 0.642553 -0.766241 0
    outer loop
      vertex 7.73038 -17.825 0
      vertex 32.7252 3.1351 5
      vertex 7.73038 -17.825 5
    endloop
  endfacet
  facet normal 0.642553 -0.766241 0
    outer loop
      vertex 32.7252 3.1351 5
      vertex 7.73038 -17.825 0
      vertex 32.7252 3.1351 0
    endloop
  endfacet
  facet normal 0.985063 0.172193 0
    outer loop
      vertex 32.7252 3.1351 5
      vertex 29.9153 19.2097 0
      vertex 29.9153 19.2097 5
    endloop
  endfacet
  facet normal 0.985063 0.172193 0
    outer loop
      vertex 29.9153 19.2097 0
      vertex 32.7252 3.1351 5
      vertex 32.7252 3.1351 0
    endloop
  endfacet
  facet normal -0.1725 0.98501 0
    outer loop
      vertex 29.9153 19.2097 0
      vertex 13.8331 16.3933 5
      vertex 29.9153 19.2097 5
    endloop
  endfacet
  facet normal -0.1725 0.98501 0
    outer loop
      vertex 13.8331 16.3933 5
      vertex 29.9153 19.2097 0
      vertex 13.8331 16.3933 0
    endloop
  endfacet
  facet normal 0.766436 0.64232 0
    outer loop
      vertex 13.8331 16.3933 5
      vertex 3.35684 28.8939 0
      vertex 3.35684 28.8939 5
    endloop
  endfacet
  facet normal 0.766436 0.64232 0
    outer loop
      vertex 3.35684 28.8939 0
      vertex 13.8331 16.3933 5
      vertex 13.8331 16.3933 0
    endloop
  endfacet
  facet normal -0.642317 0.766439 0
    outer loop
      vertex 3.35684 28.8939 0
      vertex -9.15143 18.4113 5
      vertex 3.35684 28.8939 5
    endloop
  endfacet
  facet normal -0.642317 0.766439 0
    outer loop
      vertex -9.15143 18.4113 5
      vertex 3.35684 28.8939 0
      vertex -9.15143 18.4113 0
    endloop
  endfacet
  facet normal 0.342417 0.939548 -0
    outer loop
      vertex -9.15143 18.4113 0
      vertex -24.4773 23.9968 5
      vertex -9.15143 18.4113 5
    endloop
  endfacet
  facet normal 0.342417 0.939548 0
    outer loop
      vertex -24.4773 23.9968 5
      vertex -9.15143 18.4113 0
      vertex -24.4773 23.9968 0
    endloop
  endfacet
  facet normal -0.939444 0.342702 0
    outer loop
      vertex -30.0704 8.66449 0
      vertex -24.4773 23.9968 5
      vertex -24.4773 23.9968 0
    endloop
  endfacet
  facet normal -0.939444 0.342702 0
    outer loop
      vertex -24.4773 23.9968 5
      vertex -30.0704 8.66449 0
      vertex -30.0704 8.66449 5
    endloop
  endfacet
  facet normal -0.766438 -0.642318 0
    outer loop
      vertex -19.5878 -3.84375 0
      vertex -30.0704 8.66449 5
      vertex -30.0704 8.66449 0
    endloop
  endfacet
  facet normal -0.766438 -0.642318 0
    outer loop
      vertex -30.0704 8.66449 5
      vertex -19.5878 -3.84375 0
      vertex -19.5878 -3.84375 5
    endloop
  endfacet
  facet normal -0.64232 0.766437 0
    outer loop
      vertex -19.5878 -3.84375 0
      vertex -32.0884 -14.32 5
      vertex -19.5878 -3.84375 5
    endloop
  endfacet
  facet normal -0.64232 0.766437 0
    outer loop
      vertex -32.0884 -14.32 5
      vertex -19.5878 -3.84375 0
      vertex -32.0884 -14.32 0
    endloop
  endfacet
  facet normal -0.984919 -0.173018 0
    outer loop
      vertex -29.2644 -30.3958 0
      vertex -32.0884 -14.32 5
      vertex -32.0884 -14.32 0
    endloop
  endfacet
  facet normal -0.984919 -0.173018 0
    outer loop
      vertex -32.0884 -14.32 5
      vertex -29.2644 -30.3958 0
      vertex -29.2644 -30.3958 5
    endloop
  endfacet
  facet normal 0.173762 -0.984788 0
    outer loop
      vertex -29.2644 -30.3958 0
      vertex -13.2091 -27.5629 5
      vertex -29.2644 -30.3958 5
    endloop
  endfacet
  facet normal 0.173762 -0.984788 0
    outer loop
      vertex -13.2091 -27.5629 5
      vertex -29.2644 -30.3958 0
      vertex -13.2091 -27.5629 0
    endloop
  endfacet
  facet normal 1 -0 0
    outer loop
      vertex 12.925 -5.825 10
      vertex 12.925 7.925 5
      vertex 12.925 7.925 10
    endloop
  endfacet
  facet normal 1 0 0
    outer loop
      vertex 12.925 7.925 5
      vertex 12.925 -5.825 10
      vertex 12.925 -5.825 5
    endloop
  endfacet
  facet normal -0 0 1
    outer loop
      vertex -12.925 7.925 10
      vertex 12.925 -5.825 10
      vertex 12.925 7.925 10
    endloop
  endfacet
  facet normal 0 0 1
    outer loop
      vertex 12.925 -5.825 10
      vertex -12.925 7.925 10
      vertex -12.925 -5.825 10
    endloop
  endfacet
  facet normal -1 0 0
    outer loop
      vertex -12.925 -5.825 5
      vertex -12.925 7.925 10
      vertex -12.925 7.925 5
    endloop
  endfacet
  facet normal -1 -0 0
    outer loop
      vertex -12.925 7.925 10
      vertex -12.925 -5.825 5
      vertex -12.925 -5.825 10
    endloop
  endfacet
  facet normal 0 1 -0
    outer loop
      vertex 12.925 7.925 5
      vertex -12.925 7.925 10
      vertex 12.925 7.925 10
    endloop
  endfacet
  facet normal 0 1 0
    outer loop
      vertex -12.925 7.925 10
      vertex 12.925 7.925 5
      vertex -12.925 7.925 5
    endloop
  endfacet
  facet normal 0 -1 0
    outer loop
      vertex -12.925 -5.825 5
      vertex 12.925 -5.825 10
      vertex -12.925 -5.825 10
    endloop
  endfacet
  facet normal 0 -1 -0
    outer loop
      vertex 12.925 -5.825 10
      vertex -12.925 -5.825 5
      vertex 12.925 -5.825 5
    endloop
  endfacet
endsolid OpenSCAD_Model
